<svg id="Layer_1" data-name="Layer 1" xmlns="http://www.w3.org/2000/svg" viewBox="0 0 156 156"><defs><style>.cls-1{fill:#f9b41e;}.cls-2{fill:#fff;}</style></defs><title>design</title><polygon class="cls-1" points="78.04 77.96 78.03 77.98 78.01 78 77.99 78.02 77.96 78.04 77.97 78 77.98 77.98 78.02 77.97 78.04 77.96"/><polygon class="cls-1" points="78.02 77.97 78 78.03 77.98 78.01 78.02 77.97"/><polygon class="cls-1" points="77.97 78 78.03 77.98 77.99 78.02 77.97 78"/><polygon class="cls-1" points="78.03 77.98 78.02 78.02 78 78.03 77.96 78.04 77.99 78.02 78.01 78 78.03 77.98"/><polygon class="cls-1" points="78.04 77.96 78.03 77.98 78.02 78.02 78 78.03 77.96 78.04 77.97 78 77.98 77.98 78.02 77.97 78.04 77.96"/><polygon class="cls-2" points="78.02 77.97 78 78.03 77.98 78.01 78.02 77.97"/><polygon class="cls-2" points="77.97 78 78.03 77.98 77.99 78.02 77.97 78"/><polygon class="cls-2" points="78.04 77.96 78.03 77.98 78.01 78 77.99 78.02 77.96 78.04 77.97 78 77.98 77.98 78.02 77.97 78.04 77.96"/><polygon class="cls-2" points="78.03 77.98 78.02 78.02 78 78.03 77.96 78.04 77.99 78.02 78.01 78 78.03 77.98"/><polygon class="cls-1" points="78.02 77.97 78.04 77.96 78.03 77.98 78.02 78.02 78 78.03 77.96 78.04 77.97 78 77.98 77.98 78.02 77.97"/><path class="cls-1" d="M78,0a78,78,0,1,0,78,78A78,78,0,0,0,78,0Zm41.44,73.09L94.49,79.78,91.6,76.9,44.38,124.12a2.62,2.62,0,0,1-3.7,0l-8.8-8.8a2.62,2.62,0,0,1,0-3.7L79.1,64.4l-2.88-2.89,6.69-25,20.32-5.45,2.61,2.61L93.73,45.83l-.07,0v.06l0,0,0,0-3,11.14,8.24,8.24,11.14-3,0,0,0,0h.06l0-.07,12.11-12.11,2.61,2.61Z"/></svg>