<svg id="Layer_1" data-name="Layer 1" xmlns="http://www.w3.org/2000/svg" viewBox="0 0 156 156"><defs><style>.cls-1{fill:#f9b41e;}</style></defs><title>linkedin</title><path class="cls-1" d="M133.15,22.85a78,78,0,1,0,0,110.3A78,78,0,0,0,133.15,22.85Zm-77,95.23H38.27V60.53H56.16ZM47.22,52.66A10.37,10.37,0,1,1,57.58,42.29,10.37,10.37,0,0,1,47.22,52.66Zm75.93,65.42H105.28v-28c0-6.67-.12-15.26-9.29-15.26S85.25,82.1,85.25,89.61v28.47H67.38V60.53H84.53v7.86h.24C87.16,63.87,93,59.1,101.7,59.1c18.11,0,21.45,11.92,21.45,27.41Z"/></svg>