<svg id="Layer_1" data-name="Layer 1" xmlns="http://www.w3.org/2000/svg" viewBox="0 0 156 156"><defs><style>.cls-1{fill:#f9b41e;}</style></defs><title>logo</title><path class="cls-1" d="M78,0a78,78,0,1,0,78,78A78,78,0,0,0,78,0Zm1.23,115.8q-18.33,18.32-38-1.34-18.69-18.69-3-36.2c.53-.58,1.09-1.17,1.67-1.76L64.77,51.66l3.89,11.78L55,77.06l-7.28,7.27a22.22,22.22,0,0,0-1.62,1.81q-7.78,9.67,3,20.47,11.8,11.75,22.25,1.31l7.28-7.28,0,0,6.49-6.49L93,102ZM116,79.07,100.85,94.18,84.73,78.06l-11.36-35,3.29-3.3q18.33-18.31,38,1.34T116,79.07ZM84.54,47.65l-7.28,7.28,23.59,23.59,7.28-7.28Q118.54,60.77,106.79,49T84.54,47.65Z"/></svg>