<svg id="Layer_1" data-name="Layer 1" xmlns="http://www.w3.org/2000/svg" viewBox="0 0 156 156"><defs><style>.cls-1{fill:#f9b41e;}</style></defs><title>pinterest</title><path class="cls-1" d="M99.49,30.45l.06,0,0,0Z"/><path class="cls-1" d="M133.15,22.85a78,78,0,1,0,0,110.3A78,78,0,0,0,133.15,22.85ZM85.47,99.55c-6,0-11.65-3.24-13.58-6.93,0,0-3.23,12.81-3.91,15.28-2.41,8.74-9.49,17.48-10,18.19a.74.74,0,0,1-1.32-.32c-.15-1.11-2-12.13.17-21.12,1.07-4.51,7.15-30.29,7.15-30.29a21.41,21.41,0,0,1-1.77-8.79c0-8.24,4.77-14.39,10.72-14.39,5.05,0,7.49,3.79,7.49,8.34,0,5.09-3.23,12.69-4.91,19.73-1.39,5.9,3,10.71,8.78,10.71,10.53,0,17.62-13.53,17.62-29.56,0-12.18-8.2-21.3-23.13-21.3-16.86,0-27.37,12.57-27.37,26.62A16.07,16.07,0,0,0,55,76.62c1,1.22,1.18,1.71.8,3.1-.27,1-.88,3.49-1.13,4.46a1.91,1.91,0,0,1-2.78,1.39C44.16,82.4,40.54,73.9,40.54,64.34c0-15.79,13.32-34.73,39.73-34.73,21.22,0,35.19,15.36,35.19,31.85C115.46,83.26,103.33,99.55,85.47,99.55Z"/></svg>