<svg id="Layer_1" data-name="Layer 1" xmlns="http://www.w3.org/2000/svg" viewBox="0 0 292.11 156.43"><defs><style>.cls-1{fill:#333;}.cls-2{fill:#f9b41e;}</style></defs><title>logo_1</title><path class="cls-1" d="M219.16,0H206L159,92.27v64.16h60.14q72.95,0,73-78.16T219.16,0Zm0,125.27h-29V31.37h29q41.58,0,41.69,46.9Q260.74,125.16,219.16,125.27Z"/><path class="cls-2" d="M171.83,0,156.11,31.18H101.92v0h-29a64.92,64.92,0,0,0-6.84.37Q31.35,35.29,31.26,78.16q.12,46.91,41.69,46.9h29V125h25.84v31.47H72.95Q0,156.43,0,78.16,0,3.74,66.11.18,69.44,0,72.95,0Z"/></svg>